<svg width="39" height="39" viewBox="0 0 39 39" fill="none" xmlns="http://www.w3.org/2000/svg">
<path d="M20 9C17.0117 9 16.6386 9.01375 15.4653 9.066C14.2938 9.121 13.4962 9.30525 12.795 9.5775C12.0717 9.858 11.4576 10.2347 10.8462 10.8462C10.2347 11.4576 9.85708 12.0708 9.5775 12.795C9.30525 13.4962 9.12008 14.2938 9.066 15.4653C9.011 16.6386 9 17.0117 9 20C9 22.9883 9.01375 23.3614 9.066 24.5348C9.121 25.7053 9.30525 26.5038 9.5775 27.205C9.85368 27.9391 10.2866 28.6042 10.8462 29.1538C11.3955 29.7138 12.0607 30.1468 12.795 30.4225C13.4972 30.6938 14.2947 30.8799 15.4653 30.934C16.6386 30.989 17.0117 31 20 31C22.9883 31 23.3614 30.9863 24.5348 30.934C25.7053 30.879 26.5038 30.6938 27.205 30.4225C27.9389 30.146 28.6039 29.7131 29.1538 29.1538C29.7139 28.6046 30.147 27.9395 30.4225 27.205C30.6938 26.5038 30.8799 25.7053 30.934 24.5348C30.989 23.3614 31 22.9883 31 20C31 17.0117 30.9863 16.6386 30.934 15.4653C30.879 14.2947 30.6938 13.4953 30.4225 12.795C30.1462 12.061 29.7133 11.3959 29.1538 10.8462C28.6049 10.2858 27.9396 9.85267 27.205 9.5775C26.5038 9.30525 25.7053 9.12008 24.5348 9.066C23.3614 9.011 22.9883 9 20 9ZM20 10.98C22.9361 10.98 23.2863 10.9947 24.4458 11.0451C25.5183 11.0955 26.1004 11.2733 26.4873 11.4255C27.0024 11.6244 27.3673 11.8628 27.7541 12.2468C28.1382 12.6318 28.3765 12.9976 28.5754 13.5127C28.7258 13.8996 28.9054 14.4817 28.954 15.5542C29.0063 16.7147 29.0182 17.063 29.0182 20C29.0182 22.937 29.0044 23.2863 28.9503 24.4458C28.8944 25.5183 28.7157 26.1004 28.5644 26.4873C28.3855 26.9646 28.1042 27.397 27.7403 27.7541C27.3848 28.1183 26.9527 28.3988 26.4753 28.5754C26.0903 28.7258 25.4991 28.9054 24.4266 28.954C23.2588 29.0063 22.915 29.0182 19.9725 29.0182C17.0291 29.0182 16.6853 29.0044 15.5184 28.9503C14.445 28.8944 13.8538 28.7157 13.4688 28.5644C12.9911 28.3877 12.5591 28.1061 12.2047 27.7403C11.8367 27.3872 11.5545 26.9545 11.3797 26.4753C11.2284 26.0903 11.0506 25.4991 10.9947 24.4266C10.9534 23.2716 10.9388 22.915 10.9388 19.9862C10.9388 17.0566 10.9534 16.6991 10.9947 15.5303C11.0506 14.4578 11.2284 13.8675 11.3797 13.4825C11.5722 12.96 11.8188 12.6025 12.2047 12.2166C12.5888 11.8325 12.9472 11.585 13.4688 11.3934C13.8538 11.2413 14.4322 11.0625 15.5047 11.0075C16.6734 10.9663 17.0172 10.9525 19.9588 10.9525L20 10.98ZM20 14.3515C19.2582 14.3515 18.5237 14.4976 17.8384 14.7815C17.1531 15.0653 16.5304 15.4814 16.0059 16.0059C15.4814 16.5304 15.0653 17.1531 14.7815 17.8384C14.4976 18.5237 14.3515 19.2582 14.3515 20C14.3515 20.7418 14.4976 21.4763 14.7815 22.1616C15.0653 22.8469 15.4814 23.4696 16.0059 23.9941C16.5304 24.5186 17.1531 24.9347 17.8384 25.2185C18.5237 25.5024 19.2582 25.6485 20 25.6485C21.4981 25.6485 22.9348 25.0534 23.9941 23.9941C25.0534 22.9348 25.6485 21.4981 25.6485 20C25.6485 18.5019 25.0534 17.0652 23.9941 16.0059C22.9348 14.9466 21.4981 14.3515 20 14.3515ZM20 23.6667C17.9742 23.6667 16.3333 22.0258 16.3333 20C16.3333 17.9742 17.9742 16.3333 20 16.3333C22.0258 16.3333 23.6667 17.9742 23.6667 20C23.6667 22.0258 22.0258 23.6667 20 23.6667ZM27.1922 14.1287C27.1794 14.4703 27.0348 14.7937 26.7886 15.0308C26.5425 15.268 26.214 15.4005 25.8722 15.4005C25.5304 15.4005 25.2019 15.268 24.9557 15.0308C24.7095 14.7937 24.5649 14.4703 24.5522 14.1287C24.5522 13.7787 24.6912 13.4429 24.9388 13.1954C25.1863 12.9478 25.5221 12.8088 25.8722 12.8088C26.2223 12.8088 26.558 12.9478 26.8055 13.1954C27.0531 13.4429 27.1922 13.7787 27.1922 14.1287Z" fill="white"/>
<circle cx="19.5" cy="19.5" r="19" stroke="white"/>
</svg>
