<svg width="39" height="39" viewBox="0 0 39 39" fill="none" xmlns="http://www.w3.org/2000/svg">
<circle cx="19.5" cy="19.5" r="19" stroke="white"/>
<path d="M15 12.001C14.9997 12.5314 14.7888 13.04 14.4135 13.4149C14.0382 13.7898 13.5294 14.0003 12.999 14C12.4686 13.9997 11.96 13.7888 11.5851 13.4135C11.2102 13.0382 10.9997 12.5294 11 11.999C11.0003 11.4686 11.2112 10.96 11.5865 10.5851C11.9618 10.2102 12.4706 9.99974 13.001 10C13.5314 10.0003 14.04 10.2112 14.4149 10.5865C14.7898 10.9618 15.0003 11.4706 15 12.001ZM15.06 15.481H11.06V28.001H15.06V15.481ZM21.38 15.481H17.4V28.001H21.34V21.431C21.34 17.771 26.11 17.431 26.11 21.431V28.001H30.06V20.071C30.06 13.901 23 14.131 21.34 17.161L21.38 15.481Z" fill="white"/>
</svg>
