<svg width="236" height="51" viewBox="0 0 236 51" fill="none" xmlns="http://www.w3.org/2000/svg">
<path d="M26.86 44.068H20.536L13.056 31.998L11.458 30.842L11.968 29.822H13.872C15.4133 29.822 16.626 29.4367 17.51 28.666C18.4167 27.8727 18.87 26.796 18.87 25.436C18.87 23.6453 18.3713 22.1607 17.374 20.982C16.3767 19.7807 14.926 19.18 13.022 19.18C11.7527 19.18 10.5853 19.554 9.52 20.302V41.484L13.09 42.708L12.41 44.068H2.074V43.014L5.27 40.498V19.826L1.734 18.67L2.414 17.31H6.358C8.42067 17.31 10.4493 17.242 12.444 17.106C13.8947 17.0153 14.9713 16.97 15.674 16.97C17.1927 16.97 18.5413 17.276 19.72 17.888C20.9213 18.5 21.8393 19.3273 22.474 20.37C23.1313 21.4127 23.46 22.5573 23.46 23.804C23.46 24.9373 23.1087 26.0253 22.406 27.068C21.7033 28.088 20.774 28.9833 19.618 29.754C18.4847 30.502 17.2833 31.0687 16.014 31.454L18.224 32.202L23.494 40.702L27.54 42.708L26.86 44.068ZM38.8482 44H29.3622V42.946L32.3882 40.566V30.638L29.3622 28.53V27.476L35.1762 25.3H36.4682V41.45L39.5282 42.64L38.8482 44ZM34.2922 15.1C34.9722 15.1 35.5275 15.3493 35.9582 15.848C36.4115 16.3467 36.6382 16.97 36.6382 17.718C36.6382 18.2393 36.4795 18.738 36.1622 19.214C35.8449 19.6673 35.4482 20.03 34.9722 20.302C34.4962 20.574 34.0315 20.71 33.5782 20.71C32.8982 20.71 32.3315 20.4607 31.8782 19.962C31.4475 19.4633 31.2322 18.84 31.2322 18.092C31.2322 17.5707 31.3909 17.0833 31.7082 16.63C32.0255 16.154 32.4222 15.78 32.8982 15.508C33.3742 15.236 33.8389 15.1 34.2922 15.1ZM52.267 44.068C51.7457 44.2493 51.111 44.34 50.363 44.34C48.4817 44.34 47.099 43.8527 46.215 42.878C45.3537 41.8807 44.923 40.3507 44.923 38.288V28.36H41.251V26.966L47.711 19.452H49.003V26.966H55.123V28.36H49.003V38.696C49.003 40.532 49.887 41.45 51.655 41.45C52.131 41.45 52.5844 41.348 53.015 41.144C53.4684 40.94 54.0237 40.5773 54.681 40.056L55.701 41.348L52.267 44.068ZM90.0429 44H83.5829V32.542C83.5829 31.2953 83.3902 30.4227 83.0049 29.924C82.6196 29.4253 81.9282 29.176 80.9309 29.176C80.2282 29.176 79.5369 29.312 78.8569 29.584C78.1769 29.8333 77.3722 30.3433 76.4429 31.114V41.45L79.5029 42.64L78.8229 44H72.3629V32.542C72.3629 31.2953 72.1702 30.4227 71.7849 29.924C71.3996 29.4253 70.7082 29.176 69.7109 29.176C69.0082 29.176 68.3169 29.312 67.6369 29.584C66.9569 29.8333 66.1522 30.3433 65.2229 31.114V41.45L68.2829 42.64L67.6029 44H58.1169V42.946L61.1429 40.566V30.944L58.1169 29.176V28.122L63.9309 25.266L65.0189 29.618L69.5409 25.844C70.0169 25.6627 70.6402 25.572 71.4109 25.572C72.7256 25.572 73.8136 25.9347 74.6749 26.66C75.5362 27.3627 76.0802 28.3373 76.3069 29.584L80.7269 25.878C81.2029 25.6967 81.8262 25.606 82.5969 25.606C84.1382 25.606 85.3622 26.082 86.2689 27.034C87.1756 27.9633 87.6289 29.2327 87.6289 30.842V41.45L90.7229 42.64L90.0429 44Z" fill="white"/>
<path d="M149.83 44H143.37V32.542C143.37 31.2953 143.177 30.4227 142.792 29.924C142.407 29.4253 141.715 29.176 140.718 29.176C140.015 29.176 139.324 29.312 138.644 29.584C137.964 29.8333 137.159 30.3433 136.23 31.114V41.45L139.29 42.64L138.61 44H132.15V32.542C132.15 31.2953 131.957 30.4227 131.572 29.924C131.187 29.4253 130.495 29.176 129.498 29.176C128.795 29.176 128.104 29.312 127.424 29.584C126.744 29.8333 125.939 30.3433 125.01 31.114V41.45L128.07 42.64L127.39 44H117.904V42.946L120.93 40.566V30.944L117.904 29.176V28.122L123.718 25.266L124.806 29.618L129.328 25.844C129.804 25.6627 130.427 25.572 131.198 25.572C132.513 25.572 133.601 25.9347 134.462 26.66C135.323 27.3627 135.867 28.3373 136.094 29.584L140.514 25.878C140.99 25.6967 141.613 25.606 142.384 25.606C143.925 25.606 145.149 26.082 146.056 27.034C146.963 27.9633 147.416 29.2327 147.416 30.842V41.45L150.51 42.64L149.83 44ZM164.792 44.068C163.885 44.2493 162.797 44.34 161.528 44.34C160.032 44.34 158.683 43.9547 157.482 43.184C156.303 42.3907 155.374 41.3253 154.694 39.988C154.037 38.6507 153.708 37.1773 153.708 35.568C153.708 33.8227 154.241 32.1907 155.306 30.672C156.371 29.1307 157.697 27.9067 159.284 27C160.893 26.0707 162.446 25.606 163.942 25.606C166.095 25.606 167.761 26.456 168.94 28.156C170.141 29.856 170.742 32.1 170.742 34.888H158.162C158.298 36.8147 158.819 38.39 159.726 39.614C160.655 40.838 161.913 41.45 163.5 41.45C164.973 41.45 167.07 40.3053 169.79 38.016L170.81 39.308L164.792 44.068ZM161.97 28.462C159.522 28.462 158.241 30.1393 158.128 33.494H166.084C165.88 32.27 165.665 31.3407 165.438 30.706C165.234 30.0487 164.86 29.516 164.316 29.108C163.795 28.6773 163.013 28.462 161.97 28.462ZM184.736 44.068C184.214 44.2493 183.58 44.34 182.832 44.34C180.95 44.34 179.568 43.8527 178.684 42.878C177.822 41.8807 177.392 40.3507 177.392 38.288V28.36H173.72V26.966L180.18 19.452H181.472V26.966H187.592V28.36H181.472V38.696C181.472 40.532 182.356 41.45 184.124 41.45C184.6 41.45 185.053 41.348 185.484 41.144C185.937 40.94 186.492 40.5773 187.15 40.056L188.17 41.348L184.736 44.068ZM202.826 25.64C203.574 25.64 204.231 25.844 204.798 26.252C205.364 26.66 205.806 27.2267 206.124 27.952L203.88 30.774H202.588C202.497 30.2073 202.327 29.8107 202.078 29.584C201.851 29.3347 201.534 29.21 201.126 29.21C200.627 29.21 200.094 29.346 199.528 29.618C198.984 29.8673 198.36 30.3547 197.658 31.08V41.212L202.418 42.674L201.738 44.034H190.552V42.98L193.578 40.6V30.978L190.552 29.21V28.156L196.366 25.3L197.42 29.482L200.956 25.878C201.432 25.6967 202.055 25.606 202.826 25.606V25.64ZM218.927 25.606C220.423 25.606 221.76 26.0027 222.939 26.796C224.14 27.5667 225.069 28.6207 225.727 29.958C226.407 31.2953 226.747 32.7687 226.747 34.378C226.747 36.1233 226.214 37.7667 225.149 39.308C224.083 40.8267 222.746 42.0507 221.137 42.98C219.55 43.8867 218.009 44.34 216.513 44.34C215.017 44.34 213.668 43.9547 212.467 43.184C211.288 42.3907 210.359 41.3253 209.679 39.988C209.021 38.6507 208.693 37.1773 208.693 35.568C208.693 33.8227 209.225 32.1907 210.291 30.672C211.356 29.1307 212.682 27.9067 214.269 27C215.878 26.0707 217.431 25.606 218.927 25.606ZM216.955 28.462C214.393 28.462 213.113 30.2867 213.113 33.936C213.113 36.0893 213.577 37.8913 214.507 39.342C215.436 40.77 216.762 41.484 218.485 41.484C221.046 41.484 222.327 39.648 222.327 35.976C222.327 33.8453 221.862 32.066 220.933 30.638C220.003 29.1873 218.677 28.462 216.955 28.462Z" fill="white"/>
<path d="M109.611 23.5175C107.371 22.4206 104.83 22.0741 102.373 22.5307C99.9154 22.9872 97.6758 24.2219 95.9932 26.0476C94.3106 27.8732 93.2767 30.1905 93.0481 32.6482C92.8196 35.106 93.4089 37.5702 94.7266 39.6677C96.0444 41.7652 98.0189 43.3817 100.351 44.2721C102.683 45.1625 105.246 45.2785 107.65 44.6023C110.055 43.9262 112.171 42.4949 113.678 40.5252C115.185 38.5554 116 36.1547 116 33.6866" stroke="#049DBF" stroke-width="2" stroke-linecap="round" stroke-linejoin="round"/>
<path d="M103.667 33.4439C103.667 33.7781 103.807 34.0986 104.057 34.3349C104.307 34.5713 104.646 34.704 105 34.704C105.354 34.704 105.693 34.5713 105.943 34.3349C106.193 34.0986 106.333 33.7781 106.333 33.4439C106.333 33.1097 106.193 32.7891 105.943 32.5528C105.693 32.3165 105.354 32.1837 105 32.1837C104.646 32.1837 104.307 32.3165 104.057 32.5528C103.807 32.7891 103.667 33.1097 103.667 33.4439ZM114.333 23.3625C114.333 23.6967 114.474 24.0172 114.724 24.2535C114.974 24.4899 115.313 24.6226 115.667 24.6226C116.02 24.6226 116.359 24.4899 116.609 24.2535C116.86 24.0172 117 23.6967 117 23.3625C117 23.0283 116.86 22.7077 116.609 22.4714C116.359 22.2351 116.02 22.1023 115.667 22.1023C115.313 22.1023 114.974 22.2351 114.724 22.4714C114.474 22.7077 114.333 23.0283 114.333 23.3625Z" fill="black" stroke="#049DBF" stroke-width="2" stroke-linecap="round" stroke-linejoin="round"/>
<path d="M115.667 23.3625L111 35.9642L107.667 38.4846" fill="black"/>
<path d="M115.667 23.3625L111 35.9642L107.667 38.4846" stroke="#049DBF" stroke-width="2" stroke-linecap="round" stroke-linejoin="round"/>
</svg>
