<svg width="463" height="458" viewBox="0 0 463 458" fill="none" xmlns="http://www.w3.org/2000/svg">
<rect x="48.5397" y="108.112" width="104.462" height="291.194" rx="16.5" transform="rotate(3.45682 48.5397 108.112)" fill="url(#paint0_linear_139_26)" stroke="url(#paint1_linear_139_26)" stroke-width="7"/>
<rect x="179.981" y="3.5" width="104.462" height="401.692" rx="16.5" fill="#FFFB88" stroke="#FFF500" stroke-width="7"/>
<path d="M226.613 65.2041H223.895C223.816 65.2041 223.777 65.165 223.777 65.0869L223.801 48.5986C223.801 48.5361 223.832 48.5049 223.895 48.5049H226.59C226.652 48.5049 226.684 48.5361 226.684 48.5986L226.707 65.0869C226.707 65.165 226.676 65.2041 226.613 65.2041ZM232.285 60.4463H230.27C230.191 60.4463 230.152 60.4072 230.152 60.3291V57.9854H228.512C228.418 57.9854 228.371 57.9424 228.371 57.8564V55.9697C228.371 55.9463 228.383 55.915 228.406 55.876C228.43 55.8369 228.465 55.8174 228.512 55.8174H230.152V53.1572H228.512C228.418 53.1572 228.371 53.1104 228.371 53.0166V51.0713C228.371 50.9854 228.418 50.9424 228.512 50.9424H230.152V48.5986C230.152 48.5361 230.176 48.5049 230.223 48.5049H232.332C232.363 48.5049 232.379 48.5361 232.379 48.5986V50.9424H234.582V48.5986C234.582 48.5361 234.617 48.5049 234.688 48.5049H236.797C236.828 48.5049 236.844 48.5205 236.844 48.5518V50.9424H238.449C238.527 50.9424 238.566 50.9775 238.566 51.0479V53.0166C238.566 53.1104 238.527 53.1572 238.449 53.1572H236.844V55.8174H238.449C238.527 55.8174 238.566 55.8682 238.566 55.9697V57.8564C238.566 57.9424 238.527 57.9854 238.449 57.9854H236.844V60.3291C236.844 60.4072 236.828 60.4463 236.797 60.4463H234.711C234.625 60.4463 234.582 60.4072 234.582 60.3291V57.9854H232.379V60.3291C232.379 60.4072 232.348 60.4463 232.285 60.4463ZM234.582 53.1572H232.379V55.8174H234.582V53.1572Z" fill="black"/>
<rect x="328.231" y="259.069" width="104.462" height="144.254" rx="16.5" transform="rotate(-3.46 328.231 259.069)" fill="url(#paint2_linear_139_26)" stroke="url(#paint3_linear_139_26)" stroke-width="7"/>
<rect y="388.051" width="462.359" height="31.9936" rx="15.9968" fill="#037B96"/>
<path d="M232.212 155.84L254.237 253.346L338.758 199.973L285.385 284.494L382.891 306.519L285.385 328.544L338.758 413.066L254.237 359.693L232.212 457.199L210.187 359.693L125.665 413.066L179.038 328.544L81.5322 306.519L179.038 284.494L125.665 199.973L210.187 253.346L232.212 155.84Z" fill="#4729B3"/>
<g clip-path="url(#clip0_139_26)">
<path d="M277.225 304.761C269.243 297.687 261.247 290.611 253.248 283.53C250.384 280.995 245.862 281.262 243.33 284.131C219.35 311.222 195.378 338.306 171.415 365.389C168.866 368.258 169.147 372.775 172.014 375.315C174.993 377.953 177.97 380.582 180.95 383.232C181.221 383.463 181.502 383.633 181.774 383.823C183.811 385.539 186.666 386.031 189.45 383.855C218.452 361.206 247.429 338.568 276.43 315.929C279.976 313.149 280.889 308.002 277.232 304.771" fill="#243438"/>
<path d="M185.556 375.625C183.422 373.739 181.296 371.853 179.157 369.967C178.782 369.642 178.295 369.477 177.799 369.507C177.304 369.537 176.84 369.76 176.507 370.128C170.116 377.36 163.729 384.568 157.331 391.8C157.007 392.177 156.843 392.665 156.875 393.16C156.907 393.656 157.132 394.119 157.501 394.451C158.289 395.152 159.082 395.854 159.88 396.558C159.95 396.627 160.031 396.668 160.096 396.716C160.639 397.178 161.401 397.31 162.143 396.728C169.88 390.686 177.607 384.643 185.327 378.614C186.281 377.872 186.522 376.497 185.556 375.632" fill="#243438"/>
<path d="M256.936 286.801C241.395 305.835 227.474 326.828 213.615 346.204C205.436 357.633 198.1 370.738 190.155 383.302C218.908 360.843 247.659 338.375 276.418 315.929C279.972 313.149 280.882 308.002 277.225 304.768C270.473 298.781 263.705 292.788 256.932 286.81" fill="#374D52"/>
<path d="M273.746 322.38C294.036 322.38 310.484 305.932 310.484 285.642C310.484 265.353 294.036 248.904 273.746 248.904C253.456 248.904 237.008 265.353 237.008 285.642C237.008 305.932 253.456 322.38 273.746 322.38Z" fill="#E7E6E6"/>
<path fill-rule="evenodd" clip-rule="evenodd" d="M268.808 249.274C250.86 251.677 237.008 267.026 237.008 285.628C237.008 304.266 250.886 319.627 268.864 322.006C242.777 295.013 259.546 266.742 268.808 249.25" fill="#BCBDBF"/>
<path d="M210.376 320.636C213.406 323.546 216.436 326.455 219.473 329.365C221.395 331.213 223.329 333.068 225.259 334.906C225.384 335.036 225.53 335.086 225.578 335.036C226.758 333.801 227.935 332.578 229.122 331.333L231.16 329.216C231.201 329.166 231.141 329.026 231.018 328.904C227.979 325.994 224.953 323.094 221.907 320.184C219.98 318.327 218.043 316.491 216.126 314.634C216.073 314.587 216.012 314.549 215.946 314.523L215.931 314.514C215.881 314.495 215.835 314.483 215.816 314.514C214.622 315.749 213.449 316.981 212.26 318.216C211.582 318.93 210.909 319.632 210.237 320.333C210.184 320.374 210.244 320.525 210.376 320.636Z" fill="#BF1F5B"/>
<path d="M217.253 311.986C220.278 314.886 223.317 317.796 226.359 320.706C228.281 322.553 230.213 324.399 232.145 326.246C232.26 326.367 232.412 326.427 232.46 326.376C233.635 325.141 234.817 323.909 236.006 322.674C236.674 321.972 237.356 321.268 238.034 320.557C238.082 320.506 238.032 320.367 237.887 320.247C234.858 317.337 231.828 314.437 228.795 311.527C226.859 309.679 224.927 307.825 223 305.977C222.95 305.925 222.891 305.885 222.825 305.857L222.82 305.866L222.815 305.857C222.765 305.837 222.714 305.837 222.695 305.857L219.141 309.559C218.464 310.261 217.788 310.975 217.104 311.676C217.068 311.724 217.106 311.866 217.253 311.986Z" fill="#057A70"/>
<path d="M208.73 317.887C211.759 320.799 214.793 323.706 217.832 326.607C219.749 328.462 221.69 330.309 223.613 332.157C223.742 332.277 223.889 332.337 223.935 332.277C225.107 331.052 226.297 329.819 227.481 328.584C228.149 327.883 228.841 327.169 229.514 326.458C229.559 326.417 229.495 326.268 229.372 326.157C226.333 323.248 223.303 320.338 220.261 317.428C218.339 315.581 216.407 313.735 214.487 311.888C214.435 311.835 214.372 311.794 214.302 311.767L214.292 311.758C214.237 311.748 214.192 311.739 214.172 311.758C212.988 313.002 211.806 314.225 210.621 315.47C209.939 316.181 209.271 316.885 208.598 317.577C208.538 317.625 208.598 317.777 208.73 317.887Z" fill="#DA1D5D"/>
<path d="M217.253 309.607C220.278 312.517 223.317 315.417 226.359 318.327C228.281 320.175 230.213 322.03 232.145 323.868C232.26 323.988 232.412 324.048 232.46 323.997C233.635 322.772 234.817 321.53 236.006 320.295C236.674 319.593 237.356 318.889 238.034 318.178C238.082 318.137 238.032 317.986 237.887 317.868C234.858 314.968 231.828 312.058 228.795 309.148C226.859 307.301 224.927 305.446 223 303.61C222.935 303.54 222.88 303.5 222.825 303.49H222.82L222.815 303.48C222.765 303.459 222.714 303.459 222.695 303.48L219.141 307.183C218.464 307.894 217.788 308.598 217.104 309.3C217.068 309.345 217.106 309.487 217.253 309.607Z" fill="#04A69C"/>
</g>
<path d="M244.65 263.011C239.496 265.636 237.514 272.527 244.009 274.878C245.652 275.535 247.351 276.034 249.102 276.378C256.448 277.602 263.009 275.261 266.549 268.787C273.114 256.79 272.801 242.684 278.417 230.352C278.642 229.841 279.275 229.641 279.762 230.008C289.079 237.099 296.695 243.708 291.209 255.591C289.566 259.133 286.916 262.086 283.995 264.805C285.083 264.178 286.153 263.535 287.184 262.848C290.597 260.553 294.562 257.697 295.788 253.698C297.815 247.073 295.046 241.273 292.122 235.362C289.168 229.41 286.592 223.29 283.827 217.269C283.096 215.694 281.054 214.529 281.279 213.811C281.126 214.316 280.964 214.82 280.809 215.335C279.114 220.828 277.411 226.326 275.718 231.821C272.417 242.493 269.124 253.165 265.823 263.832C265.652 264.398 264.931 264.488 264.477 264.176C258.966 260.386 250.724 259.912 244.65 262.995M181.312 216.85C179.117 221.072 181.376 226.773 187.106 225.364C188.588 225.051 190.033 224.6 191.42 224.018C197.154 221.431 200.471 216.727 199.518 210.592C197.758 199.208 190.114 189.578 187.519 178.406C187.415 177.95 187.743 177.515 188.275 177.545C198.461 178.091 207.209 179.109 209.673 189.908C210.399 193.124 210.116 196.418 209.523 199.667C209.947 198.73 210.339 197.78 210.698 196.819C211.857 193.628 213.098 189.792 211.85 186.457C209.764 180.924 204.793 178.199 199.667 175.471C194.486 172.723 189.486 169.696 184.397 166.818C183.069 166.07 181.046 166.219 180.816 165.614C180.98 166.043 181.129 166.462 181.292 166.891C183.003 171.496 184.723 176.105 186.438 180.708C189.762 189.644 193.096 198.572 196.432 207.509C196.601 207.984 196.149 208.381 195.669 208.381C189.855 208.336 183.902 211.862 181.321 216.85" fill="#FFB142"/>
<path d="M93.4588 174.043L86.0115 173.592C85.9465 173.588 85.916 173.554 85.9199 173.489L86.0566 171.227C86.0582 171.201 86.0728 171.176 86.1003 171.152L91.4418 164.685C91.5402 164.567 91.6244 164.416 91.6942 164.231C91.771 164.04 91.8137 163.873 91.8224 163.73C91.8459 163.34 91.7278 162.974 91.468 162.632C91.2082 162.29 90.8639 162.106 90.435 162.08C90.0256 162.056 89.6685 162.191 89.3637 162.485C89.0589 162.78 88.892 163.168 88.8629 163.649L88.8039 164.623C88.8 164.688 88.7656 164.719 88.7006 164.715L86.4586 164.579C86.4066 164.576 86.3826 164.542 86.3865 164.477L86.4454 163.502C86.4906 162.755 86.7169 162.087 87.1242 161.499C87.5251 160.91 88.032 160.455 88.645 160.133C89.2583 159.805 89.903 159.661 90.5788 159.702C91.2936 159.745 91.9357 159.967 92.5051 160.366C93.0676 160.772 93.5062 161.285 93.821 161.904C94.1423 162.523 94.2819 163.181 94.2398 163.876C94.2135 164.311 94.1086 164.752 93.9251 165.197C93.7486 165.637 93.5164 166.024 93.2288 166.358L89.1222 171.335L93.6062 171.606C93.6646 171.609 93.6923 171.637 93.6892 171.689L93.5524 173.95C93.5485 174.015 93.5173 174.046 93.4588 174.043ZM98.1918 170.357L96.5152 170.255C96.4502 170.251 96.4197 170.217 96.4236 170.152L96.5415 168.202L95.1768 168.12C95.0988 168.115 95.062 168.077 95.0663 168.006L95.1612 166.436C95.1624 166.417 95.1737 166.391 95.1952 166.36C95.2166 166.329 95.2469 166.314 95.2858 166.316L96.6505 166.399L96.7843 164.186L95.4196 164.104C95.3416 164.099 95.305 164.058 95.3097 163.98L95.4076 162.362C95.4119 162.29 95.453 162.257 95.531 162.261L96.8957 162.344L97.0136 160.394C97.0167 160.342 97.0378 160.318 97.0768 160.32L98.8314 160.426C98.8574 160.428 98.8688 160.454 98.8657 160.506L98.7478 162.456L100.58 162.567L100.698 160.617C100.701 160.565 100.732 160.541 100.791 160.544L102.545 160.651C102.571 160.652 102.584 160.666 102.582 160.692L102.462 162.68L103.797 162.761C103.862 162.765 103.893 162.796 103.889 162.855L103.79 164.492C103.786 164.57 103.751 164.607 103.686 164.604L102.35 164.523L102.217 166.736L103.552 166.816C103.617 166.82 103.647 166.864 103.642 166.949L103.547 168.518C103.543 168.59 103.508 168.624 103.443 168.62L102.108 168.539L101.99 170.488C101.986 170.553 101.971 170.585 101.945 170.584L100.21 170.479C100.138 170.474 100.104 170.44 100.108 170.375L100.226 168.425L98.3936 168.314L98.2757 170.264C98.2718 170.329 98.2438 170.36 98.1918 170.357ZM100.469 164.409L98.6364 164.298L98.5026 166.511L100.335 166.622L100.469 164.409Z" fill="black"/>
<path d="M377.852 295.394C377.157 295.436 376.499 295.29 375.878 294.956C375.265 294.628 374.761 294.169 374.367 293.58C373.979 292.984 373.762 292.322 373.718 291.594L373.664 290.697C373.66 290.625 373.684 290.588 373.736 290.585L375.978 290.449C376.043 290.445 376.077 290.479 376.082 290.551L376.136 291.448C376.162 291.883 376.325 292.251 376.623 292.553C376.922 292.848 377.282 292.983 377.705 292.957C378.172 292.929 378.53 292.744 378.777 292.403C379.023 292.056 379.134 291.677 379.109 291.268L379.077 290.732C379.051 290.316 378.899 289.95 378.619 289.634C378.339 289.318 378.001 289.173 377.604 289.197L376.824 289.244C376.76 289.248 376.725 289.214 376.721 289.142L376.605 286.909C376.602 286.857 376.626 286.829 376.678 286.826L377.458 286.779C377.816 286.758 378.126 286.599 378.388 286.302C378.651 286.006 378.768 285.63 378.741 285.175L378.724 284.902C378.698 284.474 378.533 284.118 378.229 283.837C377.925 283.555 377.559 283.427 377.13 283.453C376.72 283.478 376.382 283.648 376.114 283.965C375.846 284.281 375.725 284.653 375.751 285.082L375.809 286.037C375.813 286.102 375.789 286.137 375.737 286.14L373.495 286.275C373.443 286.278 373.415 286.247 373.411 286.182L373.347 285.12C373.303 284.392 373.449 283.731 373.784 283.137C374.114 282.543 374.564 282.059 375.135 281.685C375.705 281.305 376.322 281.095 376.985 281.055C377.706 281.011 378.373 281.147 378.986 281.462C379.599 281.784 380.095 282.227 380.475 282.791C380.861 283.355 381.076 283.987 381.118 284.689L381.137 285.011C381.173 285.596 381.106 286.109 380.937 286.549C380.768 286.983 380.522 287.406 380.202 287.817C380.57 288.192 380.869 288.611 381.099 289.073C381.329 289.536 381.46 290.017 381.49 290.517L381.526 291.122C381.571 291.862 381.437 292.552 381.123 293.191C380.803 293.823 380.358 294.339 379.788 294.739C379.219 295.132 378.573 295.351 377.852 295.394ZM385.846 290.714L384.169 290.815C384.104 290.819 384.07 290.788 384.066 290.723L383.948 288.774L382.583 288.856C382.505 288.861 382.464 288.828 382.46 288.756L382.365 287.187C382.364 287.167 382.372 287.141 382.389 287.107C382.407 287.073 382.435 287.055 382.474 287.053L383.839 286.971L383.705 284.758L382.34 284.84C382.262 284.845 382.221 284.808 382.216 284.73L382.118 283.112C382.114 283.041 382.151 283.003 382.229 282.998L383.594 282.915L383.476 280.966C383.473 280.914 383.49 280.887 383.529 280.884L385.284 280.778C385.31 280.777 385.325 280.802 385.328 280.854L385.446 282.803L387.278 282.693L387.16 280.743C387.157 280.691 387.185 280.663 387.243 280.66L388.998 280.554C389.024 280.552 389.038 280.564 389.039 280.59L389.16 282.579L390.495 282.498C390.56 282.494 390.594 282.522 390.598 282.58L390.697 284.218C390.702 284.296 390.671 284.337 390.606 284.341L389.271 284.421L389.405 286.634L390.74 286.553C390.805 286.549 390.84 286.59 390.845 286.674L390.94 288.244C390.945 288.315 390.914 288.353 390.849 288.357L389.514 288.437L389.632 290.387C389.636 290.452 389.625 290.485 389.599 290.487L387.863 290.592C387.792 290.596 387.754 290.566 387.75 290.501L387.632 288.551L385.8 288.662L385.918 290.612C385.922 290.676 385.898 290.711 385.846 290.714ZM387.39 284.535L385.557 284.646L385.691 286.859L387.523 286.748L387.39 284.535Z" fill="black"/>
<defs>
<linearGradient id="paint0_linear_139_26" x1="100.988" y1="104.408" x2="100.988" y2="402.602" gradientUnits="userSpaceOnUse">
<stop stop-color="#EEEEEE"/>
<stop offset="1" stop-color="#FFF962"/>
</linearGradient>
<linearGradient id="paint1_linear_139_26" x1="100.988" y1="104.408" x2="100.974" y2="373.829" gradientUnits="userSpaceOnUse">
<stop stop-color="#FFF970"/>
<stop offset="0.630208" stop-color="#86822B" stop-opacity="0.380208"/>
<stop offset="1" stop-color="#3C3A00" stop-opacity="0"/>
<stop offset="1" stop-color="#3E3C16"/>
</linearGradient>
<linearGradient id="paint2_linear_139_26" x1="380.257" y1="255.786" x2="380.257" y2="407.04" gradientUnits="userSpaceOnUse">
<stop stop-color="#C48D00"/>
<stop offset="1" stop-color="#FEF96C"/>
</linearGradient>
<linearGradient id="paint3_linear_139_26" x1="380.257" y1="255.786" x2="380.257" y2="407.04" gradientUnits="userSpaceOnUse">
<stop stop-color="#E9E24E"/>
<stop offset="1" stop-color="#CD9D10"/>
</linearGradient>
<clipPath id="clip0_139_26">
<rect width="153.776" height="153.776" fill="white" transform="translate(156.872 248.724)"/>
</clipPath>
</defs>
</svg>
