<svg width="50" height="50" viewBox="0 0 50 50" fill="none" xmlns="http://www.w3.org/2000/svg">
<path d="M25 4C13.4021 4 4 13.4023 4 25C4 36.5986 13.4023 46 25 46C36.5987 46 46 36.5986 46 25C46 13.4031 36.5987 4.00115 24.9997 4.00115L25 4ZM34.6303 34.2882C34.2541 34.9051 33.4466 35.1007 32.8297 34.722C27.8991 31.7103 21.6923 31.0281 14.3825 32.6983C14.044 32.7753 13.6888 32.7148 13.3949 32.53C13.1011 32.3452 12.8926 32.0512 12.8154 31.7128C12.7769 31.5452 12.7719 31.3717 12.8006 31.2022C12.8292 31.0327 12.8911 30.8705 12.9825 30.7249C13.0739 30.5794 13.1932 30.4532 13.3334 30.3538C13.4737 30.2544 13.6321 30.1836 13.7998 30.1455C21.7995 28.3178 28.6611 29.1047 34.1965 32.4876C34.8134 32.8663 35.009 33.6714 34.6303 34.2882ZM37.2007 28.5702C36.7265 29.3404 35.7185 29.5837 34.9487 29.1098C29.304 25.6402 20.6994 24.6353 14.0229 26.662C13.157 26.9235 12.2425 26.4355 11.9797 25.5711C11.7188 24.7052 12.2071 23.7923 13.0715 23.5292C20.698 21.2149 30.1791 22.336 36.6616 26.3194C37.4313 26.7935 37.6746 27.8014 37.2007 28.5702ZM37.4213 22.6158C30.6531 18.5957 19.4865 18.2259 13.0246 20.1874C11.9869 20.5021 10.8895 19.9162 10.5751 18.8785C10.2606 17.8403 10.8458 16.7437 11.8844 16.4282C19.3021 14.1763 31.6337 14.6116 39.4259 19.2375C40.3613 19.7913 40.6671 20.9969 40.1129 21.9289C39.5614 22.8624 38.3526 23.17 37.4223 22.6158H37.4213Z" fill="#1ED760"/>
</svg>
