<svg width="50" height="50" viewBox="0 0 50 50" fill="none" xmlns="http://www.w3.org/2000/svg">
<rect x="11" y="13" width="27" height="19" fill="white"/>
<path fill-rule="evenodd" clip-rule="evenodd" d="M20.457 30.217V17.8335L32.3443 24.0464L20.457 30.217ZM46.56 15.6867C46.56 15.6867 46.1292 12.6491 44.811 11.3121C43.1372 9.55646 41.2617 9.54911 40.4018 9.44627C34.2455 9 25.0092 9 25.0092 9H24.9908C24.9908 9 15.7545 9 9.59817 9.44627C8.7365 9.54727 6.86283 9.55646 5.18717 11.3121C3.869 12.6491 3.44 15.6867 3.44 15.6867C3.44 15.6867 3 19.255 3 22.8196V26.1657C3 29.7322 3.44 33.2986 3.44 33.2986C3.44 33.2986 3.869 36.3344 5.18717 37.6732C6.86283 39.4289 9.061 39.3738 10.04 39.5574C13.56 39.8953 25 40 25 40C25 40 34.2455 39.9871 40.4018 39.5409C41.2635 39.438 43.1372 39.4289 44.811 37.6732C46.131 36.3344 46.56 33.2986 46.56 33.2986C46.56 33.2986 47 29.7322 47 26.1639V22.8214C47 19.255 46.56 15.6867 46.56 15.6867Z" fill="#FF0000"/>
</svg>
